<?xml version="1.0" encoding="utf-8"?>
<!-- Generator: Adobe Illustrator 27.5.0, SVG Export Plug-In . SVG Version: 6.00 Build 0)  -->
<svg version="1.1" id="Ñëîé_1" xmlns="http://www.w3.org/2000/svg" xmlns:xlink="http://www.w3.org/1999/xlink" x="0px" y="0px"
	 viewBox="0 0 750 750" style="enable-background:new 0 0 750 750;" xml:space="preserve">
<g>
	<rect x="0" y="0" style="fill:#FFFFFF;" width="750" height="750"/>
	<path style="opacity:0.05;fill:#9FC3C4;" d="M627.993,575.983H122.007c-27.614,0-50-22.386-50-50V182.013c0-27.614,22.386-50,50-50
		h505.986c27.614,0,50,22.386,50,50v343.969C677.993,553.597,655.607,575.983,627.993,575.983z"/>
	<g>
		<path style="opacity:0.1;" d="M619.286,609.417H510.893c0.296-0.835,0.465-1.73,0.465-2.667c0-4.418-3.582-8-8-8H352.691
			c-4.418,0-8,3.582-8,8c0,0.937,0.169,1.831,0.465,2.667H136.668c-4.419,0-8,3.582-8,8v0c0,4.418,3.581,8,8,8h482.617
			c4.418,0,8-3.581,8-8v0C627.286,612.998,623.704,609.417,619.286,609.417z"/>
		<g>
			<g>
				<circle style="fill:#4A3A4F;" cx="237.178" cy="469.302" r="14.5"/>
				<g>
					<path style="fill:#F7636C;" d="M282.844,485.542h-91.333v-8.333c0-3.866,3.134-7,7-7h77.333c3.866,0,7,3.134,7,7V485.542z"/>
					<rect x="202.428" y="470.209" style="fill:#F78A91;" width="15.25" height="15.333"/>
				</g>
				<g>
					<polygon style="fill:#9FC3C4;" points="239.678,454.802 234.678,454.802 234.678,406.619 188.747,343.906 246.917,294.275 
						271.21,322.812 267.404,326.053 246.355,301.328 195.525,344.697 239.678,404.984 					"/>
				</g>
				<circle style="fill:#403345;" cx="193.136" cy="344.648" r="8.5"/>
				<circle style="fill:#403345;" cx="237.136" cy="407.148" r="8.5"/>
				<circle style="fill:#403345;" cx="246.636" cy="298.648" r="8.5"/>
				<circle style="fill:#FFC266;" cx="293.332" cy="353.524" r="19"/>
				<g>
					<path style="fill:#F7636C;" d="M260.604,338.971l-1.221-1.47c-5.769-6.941-4.82-17.244,2.121-23.013l0,0
						c6.941-5.769,17.244-4.82,23.013,2.121l1.221,1.469c4.077,4.904,10.2,7.637,16.572,7.396l0,0
						c6.373-0.241,12.496,2.492,16.572,7.396l5.753,6.681l-49.794,41.39l-5.754-6.681c-4.077-4.904-5.644-11.424-4.242-17.645h0
						C266.248,350.395,264.68,343.875,260.604,338.971z"/>
				</g>
				<path style="fill:#F05862;" d="M259.382,337.502l1.222,1.47c4.076,4.904,5.644,11.424,4.242,17.645
					c-1.402,6.221,0.166,12.741,4.242,17.645l5.754,6.681l25.913-21.54l-39.252-44.914
					C254.563,320.258,253.613,330.561,259.382,337.502z"/>
			</g>
			<g>
				<rect x="435.566" y="549.107" style="fill:#B8BED1;" width="22.856" height="38.094"/>
				<rect x="435.566" y="544.253" style="fill:#9FA5B5;" width="22.856" height="13.626"/>
				<g>
					<path style="fill:#B8BED1;" d="M439.961,584.417l-57.572,7.9c-3.98,0.474-7.481-2.635-7.481-6.643v-0.005
						c0-3.389,2.534-6.242,5.899-6.643l59.154-8.089V584.417z"/>
					<path style="fill:#B8BED1;" d="M454.027,584.856l57.572,7.9c3.98,0.474,7.481-2.635,7.481-6.643v-0.005
						c0-3.389-2.534-6.242-5.899-6.643l-59.154-8.089V584.856z"/>
				</g>
				<path style="fill:#3C2F40;" d="M479.234,551.44h-64.48c-4.241,0-7.68-3.438-7.68-7.68v-13.653h79.84v13.653
					C486.914,548.002,483.475,551.44,479.234,551.44z"/>
				<g>
					<path style="fill:#F7636C;" d="M392.994,339.773h122c6.627,0,12,5.373,12,12V503.44c0,5.523-4.477,10-10,10h-126
						c-5.523,0-10-4.477-10-10V351.773C380.994,345.146,386.367,339.773,392.994,339.773z"/>
					<path style="fill:#D1474F;" d="M406.685,357.44h94.618c5.253,0,9.511,4.258,9.511,9.511V497.44c0,5.523-4.477,10-10,10h-93.639
						c-5.523,0-10-4.477-10-10V366.951C397.174,361.698,401.433,357.44,406.685,357.44z"/>
				</g>
				<g>
					<g>
						<path style="fill:#603141;" d="M382.395,330.534c0,0-18.043-56.922,16.068-51.43c34.111,5.492,52.192-4.394,69.073-7.405
							c26.152-4.665,40.73,8.034,28.891,60.778L382.395,330.534z"/>
						<path style="fill:#F59784;" d="M498.871,342.306l-117,0.324c-3.682,0.01-6.675-2.966-6.685-6.648l0,0
							c-0.01-3.682,2.966-6.675,6.648-6.685l117-0.324c3.682-0.01,6.675,2.966,6.685,6.648l0,0
							C505.529,339.303,502.553,342.296,498.871,342.306z"/>
						<path style="fill:#FFA897;" d="M464.697,525.208l-47.772,0.295c-12.325,0.076-22.538-9.643-23.205-22.082l-9.624-179.49
							c-1.199-20.046,14.494-37,34.363-37.122l41.755-0.258c19.869-0.123,35.771,16.635,34.819,36.695l-7.404,179.595
							C487.114,515.287,477.022,525.132,464.697,525.208z"/>
						<path style="fill:#4A3A4F;" d="M392.79,486.091l0.929,17.33c0.667,12.439,10.881,22.159,23.206,22.082l47.772-0.295
							c12.325-0.076,22.418-9.921,22.931-22.368l0.717-17.393L392.79,486.091z"/>
						<g>
							<g>
								<g>
									<polygon style="fill:#DDDAE0;" points="398.059,487.149 330.178,487.149 330.178,463.149 378.296,463.149 389.401,406.346 
										412.955,410.952 									"/>
								</g>
								<polygon style="fill:#F3F0F7;" points="393.567,500.586 487.747,499.952 492.427,386.418 428.752,401.137 387.483,387.125 
																	"/>
								<polygon style="fill:#DDDAE0;" points="391.535,462.695 393.567,500.586 487.747,499.952 489.365,460.71 468.092,418.335 
									462.178,455.482 407.511,456.482 								"/>
								<polygon style="fill:#7785D4;" points="428.752,401.137 417.175,407.156 425.717,413.578 431.972,413.551 438.981,407.94 
																	"/>
								<polygon style="fill:#FBF7FF;" points="387.483,387.125 407.639,413.019 428.752,401.137 446.763,413.019 492.427,386.418 
									428.752,401.137 								"/>
								<polygon style="fill:#7785D4;" points="425.717,413.578 418.493,470.66 428.96,480.956 439.55,471.477 431.972,413.551 
																	"/>
								<polygon style="fill:#6B78BF;" points="439.55,471.477 437.516,455.934 420.317,456.248 418.493,470.66 428.96,480.956 
																	"/>
							</g>
						</g>
					</g>
					<path style="fill:#603141;" d="M407.649,302.799c-33.876-6.445-29.837-46.076,7.635-49.721
						c6.312-0.614-6.886,8.264-4.089,9.357c7.119-5.831,21.904-12.984,39.672-8.268c3.909,1.038-11.968,7.901-7.696,7.015
						c18.68-3.874,27.954,2.095,26.924,4.268s-14.824,4.287-1.672,19.635C475.921,293.836,451.731,311.185,407.649,302.799z"/>
					<g>
						<path style="fill:#BA3C43;" d="M449.571,362.326c0.108,5.805-7.447,14.232-16.956,14.409
							c-9.51,0.177-17.373-7.963-17.481-13.767c-0.108-5.805,7.511-5.258,17.02-5.435
							C441.664,357.355,449.463,356.521,449.571,362.326z"/>
						<path style="fill:#F7636C;" d="M420.739,372.405c3.131,2.572,7.308,4.415,11.876,4.33c6.252-0.117,11.642-3.802,14.582-7.961
							C437.947,362.323,426.35,368.55,420.739,372.405z"/>
						<g>
							<g>
								<path style="fill:#603141;" d="M405.108,339.707c-0.174-3.217-2.215-5.722-4.558-5.596
									c-2.344,0.127-4.103,2.837-3.929,6.054c0.174,3.217,2.214,5.722,4.558,5.596
									C403.522,345.634,405.281,342.924,405.108,339.707z"/>
								<path style="fill:#603141;" d="M408.946,328.217c-6.133-4.509-12.844-2.102-15.534-0.199
									c-0.676,0.478-0.837,1.414-0.358,2.091c0.477,0.676,1.414,0.837,2.091,0.358c0.06-0.042,6.084-4.201,12.025,0.167
									c0.291,0.214,0.634,0.307,0.968,0.289c0.433-0.023,0.852-0.233,1.129-0.61C409.757,329.646,409.614,328.708,408.946,328.217
									z"/>
								<path style="opacity:0.2;fill:#F7636C;" d="M404.474,363.555c-0.18-4.046-3.605-7.181-7.651-7.001
									c-4.046,0.18-7.181,3.605-7.001,7.651c0.18,4.046,3.605,7.18,7.651,7.001C401.519,371.027,404.653,367.601,404.474,363.555z
									"/>
							</g>
							<g>
								<path style="fill:#603141;" d="M459.598,339.707c0.174-3.217,2.215-5.722,4.558-5.596c2.344,0.127,4.103,2.837,3.929,6.054
									c-0.174,3.217-2.215,5.722-4.558,5.596C461.183,345.634,459.424,342.924,459.598,339.707z"/>
								<path style="fill:#603141;" d="M455.759,328.217c6.133-4.509,12.843-2.102,15.534-0.199
									c0.676,0.478,0.837,1.414,0.359,2.091c-0.477,0.676-1.414,0.837-2.091,0.358c-0.06-0.042-6.084-4.201-12.026,0.167
									c-0.291,0.214-0.634,0.307-0.968,0.289c-0.433-0.023-0.852-0.233-1.129-0.61
									C454.948,329.646,455.092,328.708,455.759,328.217z"/>
								<path style="opacity:0.2;fill:#F7636C;" d="M460.232,363.555c0.18-4.046,3.605-7.181,7.651-7.001
									c4.046,0.18,7.18,3.605,7.001,7.651c-0.18,4.046-3.605,7.18-7.651,7.001C463.187,371.027,460.052,367.601,460.232,363.555z"
									/>
							</g>
						</g>
					</g>
					<path style="fill:#603141;" d="M494.302,342.937l0.729-19.691c3.479-23.097-13.95-37.818-33.819-37.695l-7.914,1.043
						l10.546,6.222c0,0,24.917,13.083,24.983,50.121H494.302z"/>
				</g>
				<path style="fill:#F7636C;" d="M512.994,538.773h-162c-6.627,0-12-5.372-12-12v-0.333c0-5.523,4.477-10,10-10h166
					c5.523,0,10,4.477,10,10v0.333C524.994,533.401,519.621,538.773,512.994,538.773z"/>
				<g>
					<path style="fill:#4A3A4F;" d="M394.468,600.46c0-3.763-3.05-6.813-6.813-6.813c-3.763,0-6.813,3.05-6.813,6.813
						c0,3.763,3.05,6.813,6.813,6.813C391.418,607.273,394.468,604.223,394.468,600.46z"/>
					<path style="fill:#4A3A4F;" d="M513.146,600.46c0-3.763-3.05-6.813-6.813-6.813s-6.813,3.05-6.813,6.813
						c0,3.763,3.05,6.813,6.813,6.813S513.146,604.223,513.146,600.46z"/>
				</g>
				<g>
					<polygon style="fill:#603141;" points="371.029,591.262 351.693,610.027 388.609,598.249 384.164,587.858 					"/>
					<g>
						<path style="fill:#4A3A4F;" d="M370.186,592.988l-2.229-55.975c0-11.114,6.221-16.114,14.446-20.633l23.065-13.986
							l2.088,13.844l-23.065,13.986c-2.312,1.175-2.549,3.175-2.549,6.111l2.229,51.975L370.186,592.988z"/>
					</g>
				</g>
				<g>
					<polygon style="fill:#603141;" points="422.029,591.262 402.693,610.027 439.609,598.249 435.164,587.858 					"/>
					<g>
						<path style="fill:#4A3A4F;" d="M421.186,592.988l-2.229-55.975c0-11.114,6.221-16.114,14.446-20.633l23.065-13.986
							l2.088,13.844l-23.065,13.986c-2.312,1.175-2.549,3.175-2.549,6.111l2.229,51.975L421.186,592.988z"/>
					</g>
				</g>
				<path style="fill:#FFA897;" d="M413.844,463.816c0,0-30.488-1.667-30.488,14.976h30.488V463.816z"/>
				<g>
					<g>
						<path style="fill:#F3F0F7;" d="M454.621,487.231c-10.07,0-23.427-0.168-41.224-0.585l0.563-23.994
							c21.491,0.504,45.353,0.71,57.612,0.383c-0.186-9.825-1.636-27.484-3.479-44.7c-0.699-6.526,3.983-12.397,10.5-13.175
							l0.007-0.001c6.633-0.792,12.636,3.984,13.343,10.627c0.658,6.181,1.452,14.081,2.131,22.103
							c0.857,10.134,1.346,18.351,1.455,24.422c0.158,8.852,0.337,18.888-8.476,22.805
							C485.142,485.964,482.289,487.231,454.621,487.231z"/>
					</g>
				</g>
			</g>
			<g>
				<rect x="145.776" y="485.107" style="fill:#DBBDAB;" width="464.402" height="26"/>
				<rect x="145.776" y="485.107" style="fill:#F0CFBB;" width="464.402" height="8"/>
				<rect x="488.511" y="485.107" style="fill:#C7AC9B;" width="121.667" height="26"/>
				<rect x="488.511" y="485.107" style="fill:#D9BCA9;" width="121.667" height="8"/>
				<rect x="155.776" y="511.107" style="fill:#DBBDAB;" width="20" height="103.643"/>
				<rect x="580.178" y="511.107" style="fill:#DBBDAB;" width="20" height="103.643"/>
				<rect x="155.776" y="511.107" style="fill:#C7AC9B;" width="20" height="10.977"/>
				<rect x="580.178" y="511.107" style="fill:#BAA191;" width="20" height="10.977"/>
				<rect x="497.678" y="511.107" style="fill:#DBBDAB;" width="20" height="103.643"/>
				<rect x="497.678" y="511.107" style="fill:#BAA191;" width="20" height="10.977"/>
				<rect x="234.443" y="511.107" style="fill:#BFA695;" width="20" height="103.643"/>
				<rect x="234.443" y="511.107" style="fill:#A89283;" width="20" height="10.977"/>
			</g>
			<g>
				<g>
					<path style="fill:#9397AB;" d="M410.077,485.542H303.411c-2.762,0-5-0.238-5-3v-4.799h116.667v4.799
						C415.077,485.303,412.839,485.542,410.077,485.542z"/>
					<path style="fill:#87899C;" d="M298.411,481.773v0.769c0,2.761,2.239,3,5,3h106.667c2.762,0,5-0.239,5-3v-0.769H298.411z"/>
					<g>
						<path style="fill:#CED6ED;" d="M376.689,478.792H273.299c-3.666,0-8.354-4.345-8.354-8.011l-10.642-68.507
							c0-3.666,3.33-6.769,6.996-6.769h105.391c3.666,0,6.638,2.972,6.638,6.638l10,70.012
							C383.327,475.82,380.355,478.792,376.689,478.792z"/>
						<polygon style="fill:#DEE6FF;" points="270.327,395.505 269.327,404.107 293.994,404.107 294.994,395.505 						"/>
						<path style="fill:#B8BED1;" d="M374.689,478.059H271.299c-3.666,0-6.638-2.972-6.638-6.638l-10-67.012
							c0-3.666,2.972-6.638,6.638-6.638h103.391c3.666,0,6.638,2.972,6.638,6.638l10,67.012
							C381.327,475.087,378.355,478.059,374.689,478.059z"/>
					</g>
					<g>
						<path style="fill:#9FA3B8;" d="M376.327,485.542H273.661c-2.762,0-5-0.238-5-3v-4.799h112.667v4.799
							C381.327,485.303,379.089,485.542,376.327,485.542z"/>
						<path style="fill:#9497AB;" d="M268.661,481.773v0.769c0,2.761,2.239,3,5,3h102.667c2.762,0,5-0.239,5-3v-0.769H268.661z"/>
					</g>
					<path style="fill:#BDC4D9;" d="M261.299,397.772c-3.666,0-6.638,2.972-6.638,6.638l10,67.012c0,0.113,0.011,0.223,0.017,0.335
						l63.985-73.985H261.299z"/>
				</g>
				<ellipse style="fill:#DEE6FF;" cx="313.994" cy="435.44" rx="8.184" ry="7.733"/>
			</g>
			<g>
				<g>
					<g>
						<rect x="212.413" y="548.709" style="fill:#F8EBEC;" width="61.122" height="54"/>
						
							<rect x="273.535" y="548.709" transform="matrix(-1 -1.224647e-16 1.224647e-16 -1 574.9483 1151.4172)" style="fill:#A4A2BA;" width="27.878" height="54"/>
					</g>
					<g>
						<rect x="216.413" y="539.709" style="fill:#F8EBEC;" width="61.122" height="9"/>
						
							<rect x="277.535" y="539.709" transform="matrix(-1 -1.224647e-16 1.224647e-16 -1 582.9483 1088.4172)" style="fill:#A4A2BA;" width="27.878" height="9"/>
					</g>
					<g>
						<rect x="214.413" y="524.209" style="fill:#F8EBEC;" width="61.122" height="15.5"/>
						
							<rect x="275.535" y="524.209" transform="matrix(-1 -1.224647e-16 1.224647e-16 -1 578.9483 1063.9172)" style="fill:#A4A2BA;" width="27.878" height="15.5"/>
					</g>
					<polygon style="fill:#A4A2BA;" points="273.535,551.451 273.535,548.709 257.126,548.709 253.913,548.94 					"/>
					<line style="fill:#F8EBEC;" x1="275.535" y1="539.709" x2="214.413" y2="539.709"/>
					<polygon style="fill:#FFFFFF;" points="253.989,539.709 231.988,539.709 240.246,543.773 					"/>
				</g>
				<rect x="205.58" y="558.25" style="fill:#B39A8B;" width="73.667" height="56.5"/>
				
					<rect x="277.913" y="558.25" transform="matrix(-1 -1.224647e-16 1.224647e-16 -1 584.3264 1173)" style="fill:#A68F81;" width="28.5" height="56.5"/>
				<path style="fill:#A4A2BA;" d="M250.003,574.063h-17.179c-2.175,0-3.938-1.763-3.938-3.938l0,0c0-2.175,1.763-3.938,3.938-3.938
					h17.179c2.175,0,3.938,1.763,3.938,3.938l0,0C253.941,572.3,252.178,574.063,250.003,574.063z"/>
				<path style="fill:#F8EBEC;" d="M253.941,570.125c0-2.175-1.763-3.938-3.938-3.938H239.49c-2.175,0-3.938,1.763-3.938,3.938
					c0,2.175,1.763,3.938,3.938,3.938h10.513C252.178,574.063,253.941,572.3,253.941,570.125z"/>
			</g>
		</g>
	</g>
	<g>
		<circle style="fill:#B8BED1;" cx="574.29" cy="247.505" r="44.996"/>
		
			<ellipse transform="matrix(0.9871 -0.1602 0.1602 0.9871 -32.2304 95.1869)" style="fill:#F8EBEC;" cx="574.29" cy="247.505" rx="37.764" ry="37.764"/>
		<circle style="fill:#CFC4C5;" cx="574.29" cy="215.356" r="3.487"/>
		<circle style="fill:#CFC4C5;" cx="574.29" cy="279.376" r="3.487"/>
		<path style="fill:#CFC4C5;" d="M606.299,250.852c1.926,0,3.487-1.561,3.487-3.487s-1.561-3.487-3.487-3.487
			s-3.487,1.561-3.487,3.487S604.374,250.852,606.299,250.852z"/>
		<circle style="fill:#E0D5D6;" cx="596.924" cy="270" r="1.607"/>
		<path style="fill:#CFC4C5;" d="M542.28,250.852c1.926,0,3.487-1.561,3.487-3.487s-1.561-3.487-3.487-3.487
			s-3.487,1.561-3.487,3.487S540.354,250.852,542.28,250.852z"/>
		<circle style="fill:#E0D5D6;" cx="551.655" cy="224.732" r="1.607"/>
		<circle style="fill:#E0D5D6;" cx="551.655" cy="270" r="1.607"/>
		<circle style="fill:#E0D5D6;" cx="596.924" cy="224.732" r="1.607"/>
		<path style="fill:#E0D5D6;" d="M585.438,277.415c0.35,0.816,1.295,1.193,2.111,0.843c0.816-0.35,1.193-1.295,0.843-2.111
			c-0.35-0.816-1.295-1.193-2.111-0.843C585.466,275.654,585.088,276.599,585.438,277.415z"/>
		<path style="fill:#E0D5D6;" d="M560.188,218.585c0.35,0.816,1.295,1.193,2.111,0.843c0.816-0.35,1.193-1.295,0.843-2.111
			s-1.295-1.193-2.111-0.843C560.215,216.824,559.838,217.769,560.188,218.585z"/>
		<path style="fill:#E0D5D6;" d="M544.241,258.514c-0.816,0.35-1.193,1.295-0.843,2.111c0.35,0.816,1.295,1.193,2.111,0.843
			c0.816-0.35,1.193-1.295,0.843-2.111C546.002,258.542,545.057,258.164,544.241,258.514z"/>
		<path style="fill:#E0D5D6;" d="M603.071,233.264c-0.816,0.35-1.193,1.295-0.843,2.111c0.35,0.816,1.295,1.193,2.111,0.843
			c0.816-0.35,1.193-1.295,0.843-2.111S603.886,232.914,603.071,233.264z"/>
		<path style="fill:#E0D5D6;" d="M603.42,260.73c0.824,0.329,1.759-0.072,2.089-0.896c0.329-0.824-0.072-1.759-0.896-2.089
			c-0.824-0.329-1.759,0.072-2.089,0.896C602.195,259.466,602.596,260.401,603.42,260.73z"/>
		<path style="fill:#E0D5D6;" d="M543.967,236.986c0.824,0.329,1.759-0.072,2.089-0.896c0.329-0.824-0.072-1.759-0.896-2.089
			c-0.824-0.329-1.759,0.072-2.089,0.896C542.741,235.722,543.143,236.657,543.967,236.986z"/>
		<path style="fill:#E0D5D6;" d="M560.925,276.497c-0.329,0.824,0.072,1.759,0.896,2.089c0.824,0.329,1.759-0.072,2.089-0.896
			c0.329-0.824-0.072-1.759-0.896-2.089C562.19,275.271,561.254,275.672,560.925,276.497z"/>
		<path style="fill:#E0D5D6;" d="M584.669,217.043c-0.329,0.824,0.072,1.759,0.896,2.089c0.824,0.329,1.759-0.072,2.089-0.896
			c0.329-0.824-0.072-1.759-0.896-2.089C585.933,215.817,584.998,216.219,584.669,217.043z"/>
		<path style="fill:#F7636C;" d="M574.302,270.197L574.302,270.197c-0.74,0-1.339-0.6-1.339-1.339v-19.91h2.678v19.91
			C575.641,269.598,575.042,270.197,574.302,270.197z"/>
		<path style="fill:#F7636C;" d="M555.984,250.754L555.984,250.754c-0.128-0.729,0.359-1.423,1.087-1.551l17.511-3.157l0.463,2.638
			l-17.511,3.157C556.806,251.969,556.112,251.482,555.984,250.754z"/>
		<path style="fill:#D1474F;" d="M578.6,247.505c0-2.38-1.93-4.31-4.31-4.31c-2.38,0-4.31,1.93-4.31,4.31
			c0,2.38,1.93,4.31,4.31,4.31C576.67,251.815,578.6,249.885,578.6,247.505z"/>
	</g>
</g>
</svg>
